<svg width="1728" height="303" viewBox="0 0 1728 303" fill="none" xmlns="http://www.w3.org/2000/svg">
<g filter="url(#filter0_d_12002_29)">
<path d="M50.3316 3.09722H96.5106L131.842 219.903H97.7503L91.5517 176.851V177.471H52.811L46.6125 219.903H15L50.3316 3.09722ZM87.5227 148.047L72.3363 40.8833H71.7165L56.84 148.047H87.5227Z" fill="white"/>
<path d="M142.183 3.09722H194.251C211.194 3.09722 223.901 7.63981 232.372 16.725C240.843 25.8102 245.079 39.1282 245.079 56.6792V166.321C245.079 183.872 240.843 197.19 232.372 206.275C223.901 215.36 211.194 219.903 194.251 219.903H142.183V3.09722ZM193.631 188.931C199.21 188.931 203.446 187.279 206.338 183.975C209.437 180.671 210.987 175.303 210.987 167.869V55.1306C210.987 47.6972 209.437 42.3287 206.338 39.025C203.446 35.7213 199.21 34.0694 193.631 34.0694H176.275V188.931H193.631Z" fill="white"/>
<path d="M252.299 3.09722H286.701L309.016 171.276H309.636L331.95 3.09722H363.253L330.401 219.903H285.151L252.299 3.09722Z" fill="white"/>
<path d="M390.996 3.09722H437.175L472.507 219.903H438.415L432.216 176.851V177.471H393.475L387.277 219.903H355.664L390.996 3.09722ZM428.187 148.047L413.001 40.8833H412.381L397.504 148.047H428.187Z" fill="white"/>
<path d="M482.848 3.09722H525.618L558.78 132.871H559.4V3.09722H589.772V219.903H554.751L513.84 61.6347H513.221V219.903H482.848V3.09722Z" fill="white"/>
<path d="M656.951 223C640.628 223 628.128 218.354 619.45 209.062C610.979 199.771 606.743 186.659 606.743 169.728V53.2722C606.743 36.3407 610.979 23.2292 619.45 13.9375C628.128 4.64583 640.628 0 656.951 0C673.274 0 685.671 4.64583 694.142 13.9375C702.82 23.2292 707.159 36.3407 707.159 53.2722V76.1917H674.927V51.1042C674.927 37.6829 669.245 30.9722 657.881 30.9722C646.517 30.9722 640.835 37.6829 640.835 51.1042V172.206C640.835 185.42 646.517 192.028 657.881 192.028C669.245 192.028 674.927 185.42 674.927 172.206V139.065H707.159V169.728C707.159 186.659 702.82 199.771 694.142 209.062C685.671 218.354 673.274 223 656.951 223Z" fill="white"/>
<path d="M721.358 3.09722H814.336V34.0694H755.45V91.368H802.248V122.34H755.45V188.931H814.336V219.903H721.358V3.09722Z" fill="white"/>
<path d="M827.75 3.09722H879.817C896.76 3.09722 909.467 7.63981 917.938 16.725C926.409 25.8102 930.645 39.1282 930.645 56.6792V166.321C930.645 183.872 926.409 197.19 917.938 206.275C909.467 215.36 896.76 219.903 879.817 219.903H827.75V3.09722ZM879.197 188.931C884.776 188.931 889.012 187.279 891.904 183.975C895.003 180.671 896.553 175.303 896.553 167.869V55.1306C896.553 47.6972 895.003 42.3287 891.904 39.025C889.012 35.7213 884.776 34.0694 879.197 34.0694H861.841V188.931H879.197Z" fill="white"/>
<path d="M1035.22 223C1018.69 223 1006.19 218.354 997.715 209.062C989.244 199.564 985.008 186.04 985.008 168.489V156.1H1017.24V170.967C1017.24 185.007 1023.13 192.028 1034.91 192.028C1040.69 192.028 1045.03 190.376 1047.92 187.072C1051.02 183.562 1052.57 177.987 1052.57 170.347C1052.57 161.262 1050.51 153.312 1046.37 146.499C1042.24 139.478 1034.6 131.116 1023.44 121.411C1009.39 109.022 999.574 97.8722 993.996 87.9611C988.417 77.8435 985.628 66.487 985.628 53.8917C985.628 36.7537 989.967 23.5389 998.645 14.2472C1007.32 4.74907 1019.93 0 1036.46 0C1052.78 0 1065.07 4.74907 1073.34 14.2472C1081.81 23.5389 1086.04 36.9602 1086.04 54.5111V63.4931H1053.81V52.3431C1053.81 44.9097 1052.37 39.5412 1049.47 36.2375C1046.58 32.7273 1042.34 30.9722 1036.77 30.9722C1025.4 30.9722 1019.72 37.8894 1019.72 51.7236C1019.72 59.5699 1021.79 66.9 1025.92 73.7139C1030.26 80.5278 1038.01 88.787 1049.16 98.4917C1063.42 110.881 1073.23 122.134 1078.61 132.251C1083.98 142.369 1086.66 154.242 1086.66 167.869C1086.66 185.627 1082.22 199.255 1073.34 208.753C1064.66 218.251 1051.95 223 1035.22 223Z" fill="white"/>
<path d="M1126.67 34.0694H1091.02V3.09722H1196.4V34.0694H1160.76V219.903H1126.67V34.0694Z" fill="white"/>
<path d="M1256.29 223C1239.77 223 1227.16 218.354 1218.48 209.062C1209.81 199.564 1205.47 186.04 1205.47 168.489V3.09722H1239.56V170.967C1239.56 178.4 1241.01 183.769 1243.9 187.072C1247 190.376 1251.34 192.028 1256.91 192.028C1262.49 192.028 1266.73 190.376 1269.62 187.072C1272.72 183.769 1274.27 178.4 1274.27 170.967V3.09722H1307.12V168.489C1307.12 186.04 1302.78 199.564 1294.11 209.062C1285.43 218.354 1272.82 223 1256.29 223Z" fill="white"/>
<path d="M1325.21 3.09722H1377.27C1394.22 3.09722 1406.92 7.63981 1415.39 16.725C1423.86 25.8102 1428.1 39.1282 1428.1 56.6792V166.321C1428.1 183.872 1423.86 197.19 1415.39 206.275C1406.92 215.36 1394.22 219.903 1377.27 219.903H1325.21V3.09722ZM1376.65 188.931C1382.23 188.931 1386.47 187.279 1389.36 183.975C1392.46 180.671 1394.01 175.303 1394.01 167.869V55.1306C1394.01 47.6972 1392.46 42.3287 1389.36 39.025C1386.47 35.7213 1382.23 34.0694 1376.65 34.0694H1359.3V188.931H1376.65Z" fill="white"/>
<path d="M1444.91 3.09722H1479.01V219.903H1444.91V3.09722Z" fill="white"/>
<path d="M1547.62 223C1530.88 223 1518.07 218.251 1509.19 208.753C1500.3 199.255 1495.86 185.833 1495.86 168.489V54.5111C1495.86 37.1667 1500.3 23.7454 1509.19 14.2472C1518.07 4.74907 1530.88 0 1547.62 0C1564.35 0 1577.16 4.74907 1586.05 14.2472C1594.93 23.7454 1599.38 37.1667 1599.38 54.5111V168.489C1599.38 185.833 1594.93 199.255 1586.05 208.753C1577.16 218.251 1564.35 223 1547.62 223ZM1547.62 192.028C1559.4 192.028 1565.28 184.904 1565.28 170.657V52.3431C1565.28 38.0958 1559.4 30.9722 1547.62 30.9722C1535.84 30.9722 1529.95 38.0958 1529.95 52.3431V170.657C1529.95 184.904 1535.84 192.028 1547.62 192.028Z" fill="white"/>
<path d="M1660.55 223C1644.02 223 1631.52 218.354 1623.05 209.062C1614.58 199.564 1610.34 186.04 1610.34 168.489V156.1H1642.58V170.967C1642.58 185.007 1648.47 192.028 1660.24 192.028C1666.03 192.028 1670.37 190.376 1673.26 187.072C1676.36 183.562 1677.91 177.987 1677.91 170.347C1677.91 161.262 1675.84 153.312 1671.71 146.499C1667.58 139.478 1659.93 131.116 1648.78 121.411C1634.73 109.022 1624.91 97.8722 1619.33 87.9611C1613.75 77.8435 1610.96 66.487 1610.96 53.8917C1610.96 36.7537 1615.3 23.5389 1623.98 14.2472C1632.66 4.74907 1645.26 0 1661.79 0C1678.11 0 1690.41 4.74907 1698.67 14.2472C1707.14 23.5389 1711.38 36.9602 1711.38 54.5111V63.4931H1679.15V52.3431C1679.15 44.9097 1677.7 39.5412 1674.81 36.2375C1671.92 32.7273 1667.68 30.9722 1662.1 30.9722C1650.74 30.9722 1645.06 37.8894 1645.06 51.7236C1645.06 59.5699 1647.12 66.9 1651.25 73.7139C1655.59 80.5278 1663.34 88.787 1674.5 98.4917C1688.76 110.881 1698.57 122.134 1703.94 132.251C1709.31 142.369 1712 154.242 1712 167.869C1712 185.627 1707.56 199.255 1698.67 208.753C1690 218.251 1677.29 223 1660.55 223Z" fill="white"/>
</g>
<defs>
<filter id="filter0_d_12002_29" x="-25" y="0" width="1777" height="303" filterUnits="userSpaceOnUse" color-interpolation-filters="sRGB">
<feFlood flood-opacity="0" result="BackgroundImageFix"/>
<feColorMatrix in="SourceAlpha" type="matrix" values="0 0 0 0 0 0 0 0 0 0 0 0 0 0 0 0 0 0 127 0" result="hardAlpha"/>
<feOffset dy="40"/>
<feGaussianBlur stdDeviation="20"/>
<feComposite in2="hardAlpha" operator="out"/>
<feColorMatrix type="matrix" values="0 0 0 0 0 0 0 0 0 0 0 0 0 0 0 0 0 0 0.25 0"/>
<feBlend mode="normal" in2="BackgroundImageFix" result="effect1_dropShadow_12002_29"/>
<feBlend mode="normal" in="SourceGraphic" in2="effect1_dropShadow_12002_29" result="shape"/>
</filter>
</defs>
</svg>
